<?xml version="1.0" encoding="UTF-8"?>
<svg xmlns="http://www.w3.org/2000/svg" xmlns:xlink="http://www.w3.org/1999/xlink" width="150px" height="39px" viewBox="0 0 153 39" version="1.1">
<g id="surface1">
<path style=" stroke:none;fill-rule:nonzero;fill:rgb(13.72549%,23.921569%,38.431373%);fill-opacity:1;" d="M 38.28125 15.113281 C 37.640625 14.0625 36.265625 13.300781 34.773438 13.300781 C 31.585938 13.300781 29.539062 15.699219 29.539062 18.828125 C 29.539062 21.929688 31.558594 24.328125 34.746094 24.328125 C 36.46875 24.328125 37.667969 23.597656 38.457031 22.542969 L 39.949219 23.65625 C 38.777344 25.089844 37.113281 26.023438 34.746094 26.023438 C 30.332031 26.023438 27.4375 22.953125 27.4375 18.828125 C 27.4375 14.707031 30.332031 11.632812 34.746094 11.632812 C 36.585938 11.632812 38.660156 12.425781 39.832031 14.003906 Z M 38.28125 15.113281 "/>
<path style=" stroke:none;fill-rule:nonzero;fill:rgb(13.72549%,23.921569%,38.431373%);fill-opacity:1;" d="M 41.148438 8.125 C 40.445312 8.125 39.746094 7.539062 39.746094 6.71875 C 39.746094 5.902344 40.445312 5.316406 41.148438 5.316406 C 41.847656 5.316406 42.550781 5.902344 42.550781 6.71875 C 42.550781 7.539062 41.847656 8.125 41.148438 8.125 Z M 42.140625 25.675781 L 40.152344 25.675781 L 40.152344 11.984375 L 42.140625 11.984375 Z M 42.140625 25.675781 "/>
<path style=" stroke:none;fill-rule:nonzero;fill:rgb(13.72549%,23.921569%,38.431373%);fill-opacity:1;" d="M 44.394531 11.984375 L 46.292969 11.984375 C 46.351562 12.714844 46.410156 13.742188 46.410156 14.324219 L 46.46875 14.324219 C 47.226562 12.746094 48.925781 11.632812 50.851562 11.632812 C 51.351562 11.632812 51.761719 11.664062 52.167969 11.78125 L 51.90625 13.652344 C 51.671875 13.566406 51.027344 13.476562 50.503906 13.476562 C 48.398438 13.476562 46.496094 14.996094 46.496094 18.652344 L 46.496094 25.675781 L 44.507812 25.675781 L 44.507812 14.996094 C 44.507812 14.265625 44.480469 12.921875 44.394531 11.984375 Z M 44.394531 11.984375 "/>
<path style=" stroke:none;fill-rule:nonzero;fill:rgb(13.72549%,23.921569%,38.431373%);fill-opacity:1;" d="M 61.4375 15.113281 C 60.792969 14.0625 59.417969 13.300781 57.929688 13.300781 C 54.742188 13.300781 52.695312 15.699219 52.695312 18.828125 C 52.695312 21.929688 54.710938 24.328125 57.898438 24.328125 C 59.625 24.328125 60.824219 23.597656 61.613281 22.542969 L 63.101562 23.65625 C 61.933594 25.089844 60.265625 26.023438 57.898438 26.023438 C 53.484375 26.023438 50.589844 22.953125 50.589844 18.828125 C 50.589844 14.707031 53.484375 11.632812 57.898438 11.632812 C 59.742188 11.632812 61.816406 12.425781 62.984375 14.003906 Z M 61.4375 15.113281 "/>
<path style=" stroke:none;fill-rule:nonzero;fill:rgb(13.72549%,23.921569%,38.431373%);fill-opacity:1;" d="M 65.324219 25.675781 L 63.335938 25.675781 L 63.335938 3.5625 L 65.324219 3.5625 Z M 65.324219 25.675781 "/>
<path style=" stroke:none;fill-rule:nonzero;fill:rgb(13.72549%,23.921569%,38.431373%);fill-opacity:1;" d="M 80.148438 19.355469 L 68.804688 19.355469 C 68.863281 22.105469 70.996094 24.328125 73.804688 24.328125 C 75.851562 24.328125 77.429688 23.1875 78.1875 21.957031 L 79.679688 23.128906 C 78.070312 25.175781 76.054688 26.023438 73.804688 26.023438 C 69.738281 26.023438 66.730469 22.953125 66.730469 18.828125 C 66.730469 14.707031 69.738281 11.632812 73.628906 11.632812 C 77.925781 11.632812 80.175781 14.675781 80.175781 18.421875 C 80.175781 18.683594 80.175781 19.003906 80.148438 19.355469 Z M 78.160156 17.777344 C 78.042969 15.203125 76.464844 13.300781 73.628906 13.300781 C 70.96875 13.300781 69.007812 15.4375 68.835938 17.777344 Z M 78.160156 17.777344 "/>
<path style=" stroke:none;fill-rule:nonzero;fill:rgb(95.686275%,55.294118%,19.607843%);fill-opacity:1;" d="M 82.691406 25.847656 C 81.753906 25.847656 81.113281 25.089844 81.113281 24.269531 C 81.113281 23.449219 81.753906 22.691406 82.691406 22.691406 C 83.625 22.691406 84.269531 23.449219 84.269531 24.269531 C 84.269531 25.089844 83.625 25.847656 82.691406 25.847656 Z M 82.691406 25.847656 "/>
<path style=" stroke:none;fill-rule:nonzero;fill:rgb(13.72549%,23.921569%,38.431373%);fill-opacity:1;" d="M 96.050781 15.113281 C 95.40625 14.0625 94.035156 13.300781 92.542969 13.300781 C 89.355469 13.300781 87.308594 15.699219 87.308594 18.828125 C 87.308594 21.929688 89.328125 24.328125 92.515625 24.328125 C 94.238281 24.328125 95.4375 23.597656 96.226562 22.542969 L 97.71875 23.65625 C 96.546875 25.089844 94.882812 26.023438 92.515625 26.023438 C 88.097656 26.023438 85.203125 22.953125 85.203125 18.828125 C 85.203125 14.707031 88.097656 11.632812 92.515625 11.632812 C 94.355469 11.632812 96.429688 12.425781 97.601562 14.003906 Z M 96.050781 15.113281 "/>
<path style=" stroke:none;fill-rule:nonzero;fill:rgb(13.72549%,23.921569%,38.431373%);fill-opacity:1;" d="M 99.941406 25.675781 L 97.953125 25.675781 L 97.953125 3.5625 L 99.941406 3.5625 Z M 99.941406 25.675781 "/>
<path style=" stroke:none;fill-rule:nonzero;fill:rgb(13.72549%,23.921569%,38.431373%);fill-opacity:1;" d="M 108.621094 26.023438 C 104.382812 26.023438 101.34375 22.953125 101.34375 18.828125 C 101.34375 14.707031 104.382812 11.632812 108.621094 11.632812 C 112.890625 11.632812 115.933594 14.707031 115.933594 18.828125 C 115.933594 22.953125 112.890625 26.023438 108.621094 26.023438 Z M 108.621094 13.300781 C 105.464844 13.300781 103.449219 15.757812 103.449219 18.828125 C 103.449219 21.902344 105.464844 24.328125 108.621094 24.328125 C 111.808594 24.328125 113.828125 21.902344 113.828125 18.828125 C 113.828125 15.757812 111.808594 13.300781 108.621094 13.300781 Z M 108.621094 13.300781 "/>
<path style=" stroke:none;fill-rule:nonzero;fill:rgb(13.72549%,23.921569%,38.431373%);fill-opacity:1;" d="M 127.214844 25.675781 C 127.15625 24.941406 127.097656 23.917969 127.097656 23.332031 L 127.039062 23.332031 C 126.28125 24.914062 124.292969 26.023438 122.363281 26.023438 C 118.882812 26.023438 117.160156 23.773438 117.160156 20.378906 L 117.160156 11.984375 L 119.148438 11.984375 L 119.148438 19.5625 C 119.148438 22.425781 119.996094 24.359375 122.859375 24.359375 C 124.964844 24.359375 127.011719 22.660156 127.011719 19.003906 L 127.011719 11.984375 L 129 11.984375 L 129 22.660156 C 129 23.390625 129.027344 24.738281 129.117188 25.675781 Z M 127.214844 25.675781 "/>
<path style=" stroke:none;fill-rule:nonzero;fill:rgb(13.72549%,23.921569%,38.431373%);fill-opacity:1;" d="M 137.417969 26.023438 C 133.152344 26.023438 130.34375 22.867188 130.34375 18.828125 C 130.34375 14.792969 133.152344 11.632812 137.417969 11.632812 C 139.378906 11.632812 141.425781 12.570312 142.59375 14.355469 L 142.652344 14.355469 L 142.652344 3.5625 L 144.640625 3.5625 L 144.640625 25.675781 L 142.652344 25.675781 L 142.652344 23.363281 L 142.59375 23.363281 C 141.425781 25.089844 139.378906 26.023438 137.417969 26.023438 Z M 137.625 24.328125 C 140.695312 24.328125 142.886719 21.957031 142.886719 18.828125 C 142.886719 15.699219 140.695312 13.300781 137.625 13.300781 C 134.320312 13.300781 132.449219 15.789062 132.449219 18.828125 C 132.449219 21.871094 134.320312 24.328125 137.625 24.328125 Z M 137.625 24.328125 "/>
<path style=" stroke:none;fill-rule:nonzero;fill:rgb(13.72549%,23.921569%,38.431373%);fill-opacity:1;" d="M 24.238281 21.0625 C 24.238281 27.738281 18.832031 33.148438 12.152344 33.148438 C 5.480469 33.148438 0.0703125 27.738281 0.0703125 21.0625 C 0.0703125 14.382812 5.480469 8.96875 12.152344 8.96875 C 18.832031 8.96875 24.238281 14.382812 24.238281 21.0625 Z M 24.238281 21.0625 "/>
<path style=" stroke:none;fill-rule:nonzero;fill:rgb(13.72549%,23.921569%,38.431373%);fill-opacity:1;" d="M 31.449219 5.65625 C 31.449219 8.777344 28.917969 11.3125 25.796875 11.3125 C 22.675781 11.3125 20.148438 8.777344 20.148438 5.65625 C 20.148438 2.53125 22.675781 0 25.796875 0 C 28.917969 0 31.449219 2.53125 31.449219 5.65625 Z M 31.449219 5.65625 "/>
<path style=" stroke:none;fill-rule:nonzero;fill:rgb(95.686275%,55.294118%,19.607843%);fill-opacity:1;" d="M 80.101562 30.574219 C 79.867188 30.1875 79.363281 29.90625 78.816406 29.90625 C 77.648438 29.90625 76.898438 30.785156 76.898438 31.933594 C 76.898438 33.070312 77.636719 33.953125 78.804688 33.953125 C 79.4375 33.953125 79.878906 33.683594 80.167969 33.296875 L 80.714844 33.707031 C 80.285156 34.230469 79.675781 34.574219 78.804688 34.574219 C 77.1875 34.574219 76.125 33.445312 76.125 31.933594 C 76.125 30.421875 77.1875 29.296875 78.804688 29.296875 C 79.480469 29.296875 80.242188 29.585938 80.671875 30.164062 Z M 80.101562 30.574219 "/>
<path style=" stroke:none;fill-rule:nonzero;fill:rgb(95.686275%,55.294118%,19.607843%);fill-opacity:1;" d="M 83.296875 34.574219 C 81.742188 34.574219 80.628906 33.445312 80.628906 31.933594 C 80.628906 30.421875 81.742188 29.296875 83.296875 29.296875 C 84.863281 29.296875 85.976562 30.421875 85.976562 31.933594 C 85.976562 33.445312 84.863281 34.574219 83.296875 34.574219 Z M 83.296875 29.90625 C 82.140625 29.90625 81.398438 30.808594 81.398438 31.933594 C 81.398438 33.0625 82.140625 33.953125 83.296875 33.953125 C 84.464844 33.953125 85.207031 33.0625 85.207031 31.933594 C 85.207031 30.808594 84.464844 29.90625 83.296875 29.90625 Z M 83.296875 29.90625 "/>
<path style=" stroke:none;fill-rule:nonzero;fill:rgb(95.686275%,55.294118%,19.607843%);fill-opacity:1;" d="M 89.054688 29.296875 C 89.601562 29.296875 90.265625 29.5 90.597656 30.359375 C 90.941406 29.671875 91.550781 29.296875 92.355469 29.296875 C 93.632812 29.296875 94.265625 30.121094 94.265625 31.367188 L 94.265625 34.445312 L 93.535156 34.445312 L 93.535156 31.667969 C 93.535156 30.617188 93.183594 29.90625 92.238281 29.90625 C 91.1875 29.90625 90.8125 30.839844 90.8125 31.773438 L 90.8125 34.445312 L 90.082031 34.445312 L 90.082031 31.515625 C 90.082031 30.539062 89.847656 29.90625 88.871094 29.90625 C 88.175781 29.90625 87.414062 30.53125 87.414062 31.871094 L 87.414062 34.445312 L 86.683594 34.445312 L 86.683594 30.53125 C 86.683594 30.261719 86.675781 29.769531 86.640625 29.425781 L 87.339844 29.425781 C 87.359375 29.691406 87.382812 30.070312 87.382812 30.285156 L 87.402344 30.285156 C 87.691406 29.703125 88.335938 29.296875 89.054688 29.296875 Z M 89.054688 29.296875 "/>
<path style=" stroke:none;fill-rule:nonzero;fill:rgb(95.686275%,55.294118%,19.607843%);fill-opacity:1;" d="M 97.664062 29.296875 C 98.207031 29.296875 98.875 29.5 99.207031 30.359375 C 99.546875 29.671875 100.160156 29.296875 100.964844 29.296875 C 102.238281 29.296875 102.871094 30.121094 102.871094 31.367188 L 102.871094 34.445312 L 102.144531 34.445312 L 102.144531 31.667969 C 102.144531 30.617188 101.789062 29.90625 100.847656 29.90625 C 99.796875 29.90625 99.421875 30.839844 99.421875 31.773438 L 99.421875 34.445312 L 98.691406 34.445312 L 98.691406 31.515625 C 98.691406 30.539062 98.457031 29.90625 97.480469 29.90625 C 96.78125 29.90625 96.023438 30.53125 96.023438 31.871094 L 96.023438 34.445312 L 95.292969 34.445312 L 95.292969 30.53125 C 95.292969 30.261719 95.28125 29.769531 95.25 29.425781 L 95.945312 29.425781 C 95.96875 29.691406 95.988281 30.070312 95.988281 30.285156 L 96.011719 30.285156 C 96.300781 29.703125 96.945312 29.296875 97.664062 29.296875 Z M 97.664062 29.296875 "/>
<path style=" stroke:none;fill-rule:nonzero;fill:rgb(95.686275%,55.294118%,19.607843%);fill-opacity:1;" d="M 107.546875 34.445312 C 107.523438 34.175781 107.503906 33.800781 107.503906 33.585938 L 107.480469 33.585938 C 107.203125 34.167969 106.472656 34.574219 105.765625 34.574219 C 104.492188 34.574219 103.859375 33.75 103.859375 32.503906 L 103.859375 29.425781 L 104.585938 29.425781 L 104.585938 32.203125 C 104.585938 33.253906 104.898438 33.960938 105.949219 33.960938 C 106.71875 33.960938 107.46875 33.339844 107.46875 32 L 107.46875 29.425781 L 108.199219 29.425781 L 108.199219 33.339844 C 108.199219 33.609375 108.210938 34.101562 108.242188 34.445312 Z M 107.546875 34.445312 "/>
<path style=" stroke:none;fill-rule:nonzero;fill:rgb(95.686275%,55.294118%,19.607843%);fill-opacity:1;" d="M 109.925781 29.425781 C 109.945312 29.691406 109.96875 30.070312 109.96875 30.285156 L 109.988281 30.285156 C 110.269531 29.703125 110.996094 29.296875 111.703125 29.296875 C 112.980469 29.296875 113.613281 30.121094 113.613281 31.367188 L 113.613281 34.445312 L 112.882812 34.445312 L 112.882812 31.667969 C 112.882812 30.617188 112.574219 29.90625 111.523438 29.90625 C 110.75 29.90625 110 30.53125 110 31.871094 L 110 34.445312 L 109.269531 34.445312 L 109.269531 30.53125 C 109.269531 30.261719 109.261719 29.769531 109.226562 29.425781 Z M 109.925781 29.425781 "/>
<path style=" stroke:none;fill-rule:nonzero;fill:rgb(95.686275%,55.294118%,19.607843%);fill-opacity:1;" d="M 115.015625 28.007812 C 114.757812 28.007812 114.5 27.792969 114.5 27.496094 C 114.5 27.195312 114.757812 26.980469 115.015625 26.980469 C 115.273438 26.980469 115.53125 27.195312 115.53125 27.496094 C 115.53125 27.792969 115.273438 28.007812 115.015625 28.007812 Z M 115.378906 34.445312 L 114.652344 34.445312 L 114.652344 29.425781 L 115.378906 29.425781 Z M 115.378906 34.445312 "/>
<path style=" stroke:none;fill-rule:nonzero;fill:rgb(95.686275%,55.294118%,19.607843%);fill-opacity:1;" d="M 120.078125 30.574219 C 119.839844 30.1875 119.335938 29.90625 118.789062 29.90625 C 117.621094 29.90625 116.871094 30.785156 116.871094 31.933594 C 116.871094 33.070312 117.609375 33.953125 118.777344 33.953125 C 119.410156 33.953125 119.851562 33.683594 120.140625 33.296875 L 120.6875 33.707031 C 120.257812 34.230469 119.648438 34.574219 118.777344 34.574219 C 117.160156 34.574219 116.097656 33.445312 116.097656 31.933594 C 116.097656 30.421875 117.160156 29.296875 118.777344 29.296875 C 119.453125 29.296875 120.214844 29.585938 120.644531 30.164062 Z M 120.078125 30.574219 "/>
<path style=" stroke:none;fill-rule:nonzero;fill:rgb(95.686275%,55.294118%,19.607843%);fill-opacity:1;" d="M 124.128906 31.207031 C 124.128906 30.335938 123.65625 29.90625 122.789062 29.90625 C 122.199219 29.90625 121.652344 30.144531 121.296875 30.496094 L 120.890625 30.015625 C 121.296875 29.605469 122.007812 29.296875 122.863281 29.296875 C 123.945312 29.296875 124.816406 29.898438 124.816406 31.121094 L 124.816406 33.320312 C 124.816406 33.707031 124.847656 34.167969 124.902344 34.445312 L 124.246094 34.445312 C 124.203125 34.199219 124.171875 33.898438 124.171875 33.628906 L 124.152344 33.628906 C 123.6875 34.292969 123.132812 34.574219 122.328125 34.574219 C 121.566406 34.574219 120.589844 34.167969 120.589844 33.050781 C 120.589844 31.503906 122.296875 31.367188 124.128906 31.367188 Z M 123.914062 31.933594 C 122.722656 31.933594 121.339844 32.0625 121.339844 33.019531 C 121.339844 33.738281 121.953125 33.972656 122.519531 33.972656 C 123.550781 33.972656 124.128906 33.199219 124.128906 32.308594 L 124.128906 31.933594 Z M 123.914062 31.933594 "/>
<path style=" stroke:none;fill-rule:nonzero;fill:rgb(95.686275%,55.294118%,19.607843%);fill-opacity:1;" d="M 127.988281 30.035156 L 126.574219 30.035156 L 126.574219 32.964844 C 126.574219 33.714844 126.882812 33.886719 127.324219 33.886719 C 127.527344 33.886719 127.761719 33.824219 127.957031 33.726562 L 127.988281 34.359375 C 127.730469 34.457031 127.460938 34.511719 127.128906 34.511719 C 126.59375 34.511719 125.84375 34.273438 125.84375 33.167969 L 125.84375 30.035156 L 124.804688 30.035156 L 124.804688 29.425781 L 125.84375 29.425781 L 125.84375 28.007812 L 126.574219 28.007812 L 126.574219 29.425781 L 127.988281 29.425781 Z M 127.988281 30.035156 "/>
<path style=" stroke:none;fill-rule:nonzero;fill:rgb(95.686275%,55.294118%,19.607843%);fill-opacity:1;" d="M 128.640625 28.007812 C 128.382812 28.007812 128.125 27.792969 128.125 27.496094 C 128.125 27.195312 128.382812 26.980469 128.640625 26.980469 C 128.898438 26.980469 129.15625 27.195312 129.15625 27.496094 C 129.15625 27.792969 128.898438 28.007812 128.640625 28.007812 Z M 129.007812 34.445312 L 128.277344 34.445312 L 128.277344 29.425781 L 129.007812 29.425781 Z M 129.007812 34.445312 "/>
<path style=" stroke:none;fill-rule:nonzero;fill:rgb(95.686275%,55.294118%,19.607843%);fill-opacity:1;" d="M 132.394531 34.574219 C 130.839844 34.574219 129.722656 33.445312 129.722656 31.933594 C 129.722656 30.421875 130.839844 29.296875 132.394531 29.296875 C 133.960938 29.296875 135.074219 30.421875 135.074219 31.933594 C 135.074219 33.445312 133.960938 34.574219 132.394531 34.574219 Z M 132.394531 29.90625 C 131.234375 29.90625 130.496094 30.808594 130.496094 31.933594 C 130.496094 33.0625 131.234375 33.953125 132.394531 33.953125 C 133.5625 33.953125 134.300781 33.0625 134.300781 31.933594 C 134.300781 30.808594 133.5625 29.90625 132.394531 29.90625 Z M 132.394531 29.90625 "/>
<path style=" stroke:none;fill-rule:nonzero;fill:rgb(95.686275%,55.294118%,19.607843%);fill-opacity:1;" d="M 136.433594 29.425781 C 136.457031 29.691406 136.476562 30.070312 136.476562 30.285156 L 136.5 30.285156 C 136.777344 29.703125 137.507812 29.296875 138.214844 29.296875 C 139.492188 29.296875 140.121094 30.121094 140.121094 31.367188 L 140.121094 34.445312 L 139.394531 34.445312 L 139.394531 31.667969 C 139.394531 30.617188 139.082031 29.90625 138.03125 29.90625 C 137.261719 29.90625 136.511719 30.53125 136.511719 31.871094 L 136.511719 34.445312 L 135.78125 34.445312 L 135.78125 30.53125 C 135.78125 30.261719 135.769531 29.769531 135.738281 29.425781 Z M 136.433594 29.425781 "/>
<path style=" stroke:none;fill-rule:nonzero;fill:rgb(95.686275%,55.294118%,19.607843%);fill-opacity:1;" d="M 143.820312 30.617188 C 143.605469 30.199219 143.144531 29.90625 142.585938 29.90625 C 142.0625 29.90625 141.527344 30.132812 141.527344 30.691406 C 141.527344 31.164062 141.902344 31.378906 142.726562 31.546875 C 143.90625 31.796875 144.464844 32.234375 144.464844 33.019531 C 144.464844 34.167969 143.5 34.574219 142.578125 34.574219 C 141.816406 34.574219 141.054688 34.273438 140.59375 33.597656 L 141.171875 33.167969 C 141.429688 33.609375 141.976562 33.953125 142.566406 33.953125 C 143.1875 33.953125 143.746094 33.726562 143.746094 33.070312 C 143.746094 32.546875 143.21875 32.332031 142.265625 32.105469 C 141.675781 31.96875 140.828125 31.710938 140.828125 30.753906 C 140.828125 29.734375 141.710938 29.296875 142.621094 29.296875 C 143.316406 29.296875 144.058594 29.628906 144.378906 30.199219 Z M 143.820312 30.617188 "/>
</g>
</svg>
